HIERARCHY
ROOT Hip
{
  OFFSET 0 0 0
  CHANNELS 6 Xposition Yposition Zposition Zrotation Xrotation Yrotation
  JOINT RHip
  {
    OFFSET 10.565771 -1.259305 0.341481
    CHANNELS 3 Zrotation Xrotation Yrotation
    JOINT RKnee
    {
      OFFSET -2.502417 17.004666 -39.226809
      CHANNELS 3 Zrotation Xrotation Yrotation
      JOINT RAnkle
      {
        OFFSET -1.921045 27.958740 -33.210692
        CHANNELS 3 Zrotation Xrotation Yrotation
        End Site
        {
          OFFSET 0 10 0
        }
      }
    }
  }
  JOINT LHip
  {
    OFFSET -10.283154 5.440871 0.103563
    CHANNELS 3 Zrotation Xrotation Yrotation
    JOINT LKnee
    {
      OFFSET 3.761816 17.208802 -38.645604
      CHANNELS 3 Zrotation Xrotation Yrotation
      JOINT LAnkle
      {
        OFFSET 1.860620 28.908190 -33.334544
        CHANNELS 3 Zrotation Xrotation Yrotation
        End Site
        {
          OFFSET 0 10 0
        }
      }
    }
  }
  JOINT Spine
  {
    OFFSET -0.455591 -3.996097 22.968519
    CHANNELS 3 Zrotation Xrotation Yrotation
    JOINT Thorax
    {
      OFFSET 0.371191 3.256535 26.166373
      CHANNELS 3 Zrotation Xrotation Yrotation
      JOINT Neck
      {
        OFFSET -0.061816 -9.320724 13.878393
        CHANNELS 3 Zrotation Xrotation Yrotation
        JOINT Head
        {
          OFFSET 0.141699 13.382026 3.880489
          CHANNELS 3 Zrotation Xrotation Yrotation
          End Site
          {
            OFFSET 0 10 0
          }
        }
      }
      JOINT LShoulder
      {
        OFFSET -14.921362 1.643501 -3.034043
        CHANNELS 3 Zrotation Xrotation Yrotation
        JOINT LElbow
        {
          OFFSET -24.114257 6.545542 -0.403833
          CHANNELS 3 Zrotation Xrotation Yrotation
          JOINT LWrist
          {
            OFFSET -20.923537 -13.627711 2.670360
            CHANNELS 3 Zrotation Xrotation Yrotation
            End Site
            {
              OFFSET 0 10 0
            }
          }
        }
      }
      JOINT RShoulder
      {
        OFFSET 15.032934 -7.543689 -2.623725
        CHANNELS 3 Zrotation Xrotation Yrotation
        JOINT RElbow
        {
          OFFSET 23.188525 -13.099534 -1.673174
          CHANNELS 3 Zrotation Xrotation Yrotation
          JOINT RWrist
          {
            OFFSET 23.706716 -18.975526 0.652087
            CHANNELS 3 Zrotation Xrotation Yrotation
            End Site
            {
              OFFSET 0 10 0
            }
          }
        }
      }
    }
  }
}

MOTION
Frames: 9
Frame Time: 0.008333333333333333
-0.000000 0.000000 72.096020 0.000000 0.000000 0.000000 -96.793395 -0.217505 -1.825219 20.137098 -64.981865 -18.380514 6.081435 -49.681389 -4.644134 62.117386 0.238525 0.450815 -27.791459 -62.740377 25.103826 -5.604124 -48.873120 4.227161 146.535995 -78.145501 32.898236 -42.523335 80.354187 -42.117219 179.318478 -56.112244 0.565761 -0.631656 16.169189 -0.175907 83.838148 -1.242798 -11.359413 74.815515 -0.242545 -0.893596 122.927794 -3.326958 5.120665 -116.372882 3.963904 7.937189 -119.414433 1.767257 3.130913 -128.668324 -0.768717 -0.960485
-0.000000 0.000000 72.154248 0.000000 0.000000 0.000000 -98.043273 -0.261581 -1.850448 20.030119 -64.397768 -18.199367 5.907007 -49.840678 -4.521110 61.148052 0.243921 0.442729 -27.631431 -62.531176 24.913420 -5.739244 -48.823179 4.326088 146.524525 -77.972709 32.892942 -42.860663 80.461059 -42.463121 177.666823 -56.644994 1.949181 -1.083210 16.511531 -0.307891 83.515402 -1.297704 -11.268536 75.367278 -0.232349 -0.889843 124.481667 -3.159267 4.587753 -116.899900 4.086163 7.995175 -121.097415 1.559467 2.583350 -129.158485 -0.759075 -0.931986
-0.000000 0.000000 72.275144 0.000000 0.000000 0.000000 -97.968984 -0.276145 -1.971838 20.390240 -64.502639 -18.546646 5.871734 -49.963840 -4.502142 61.353686 0.193995 0.355123 -28.108143 -62.729891 25.396847 -5.643618 -49.059316 4.269047 145.575266 -77.903263 33.827246 -39.403588 80.479382 -39.014347 177.753639 -56.580535 1.875240 -0.976987 16.381654 -0.275568 83.889955 -1.226580 -11.308350 75.869941 -0.242877 -0.964697 124.756285 -3.205721 4.607577 -117.128853 4.126116 7.993901 -121.445008 1.570839 2.566867 -129.128335 -0.715088 -0.878935
-0.000000 0.000000 72.339499 0.000000 0.000000 0.000000 -98.057935 -0.277063 -1.956280 20.400455 -64.620955 -18.573062 5.967479 -50.105001 -4.585190 61.385477 0.192096 0.352111 -27.983153 -62.626886 25.259799 -5.611571 -49.089397 4.246664 144.907645 -77.832055 34.482352 -38.515900 80.624114 -38.141012 177.587945 -56.534979 2.012552 -0.954570 16.416979 -0.269809 83.676545 -1.273328 -11.339190 75.167931 -0.268017 -1.012002 123.940050 -3.095917 4.588190 -117.101184 4.112307 7.976904 -121.495878 1.527689 2.491497 -129.286412 -0.798657 -0.976114
-0.000000 0.000000 72.426367 0.000000 0.000000 0.000000 -98.722959 -0.296244 -1.930053 20.167797 -64.393082 -18.325656 5.910626 -50.225177 -4.549298 60.949504 0.204388 0.367954 -27.907157 -62.689563 25.201510 -5.762899 -49.122539 4.363688 145.149856 -77.823134 34.241181 -39.697279 80.641339 -39.320440 177.203688 -56.805270 2.340551 -0.978432 16.407079 -0.276393 83.341252 -1.337858 -11.309587 74.826030 -0.295144 -1.088128 124.209945 -3.201384 4.695942 -117.209431 4.136714 7.986793 -121.834438 1.514234 2.437181 -129.545496 -0.817361 -0.989804
-0.000000 0.000000 72.444654 0.000000 0.000000 0.000000 -99.472047 -0.315129 -1.888106 20.979015 -64.770756 -19.129973 5.768642 -50.311286 -4.445236 60.484084 0.229332 0.405072 -28.731778 -62.852668 26.003709 -5.936592 -49.093018 4.493609 145.128574 -77.909482 34.270929 -39.014243 80.487564 -38.626789 176.755693 -56.761928 2.714410 -1.030125 16.417292 -0.291174 83.157403 -1.370972 -11.276100 74.533084 -0.287452 -1.038731 124.005837 -3.093477 4.573297 -117.600524 4.184753 7.946062 -122.590945 1.481394 2.315679 -129.679452 -0.805833 -0.971214
-0.000000 0.000000 72.406834 0.000000 0.000000 0.000000 -99.391500 -0.317890 -1.921259 20.918960 -64.564508 -19.044220 5.726077 -50.317057 -4.412715 60.494038 0.215955 0.381601 -28.286672 -62.846869 25.586758 -5.742856 -49.110202 4.347661 144.433903 -77.782378 34.947395 -37.256959 80.620608 -36.886053 176.791924 -56.743545 2.683514 -0.976485 16.317855 -0.274383 83.336054 -1.344661 -11.356881 74.705082 -0.304735 -1.114167 123.904906 -3.128004 4.641608 -117.629356 4.160763 7.891614 -122.455635 1.491811 2.344107 -129.745844 -0.760315 -0.914210
-0.000000 0.000000 72.317922 0.000000 0.000000 0.000000 -99.493115 -0.298449 -1.784196 20.651236 -64.436556 -18.778089 5.668743 -50.219329 -4.362248 60.321656 0.283451 0.497364 -27.838142 -62.742271 25.147687 -5.745513 -48.955620 4.339539 144.695454 -77.700615 34.679547 -38.112148 80.761337 -37.749433 177.215290 -56.961767 2.334988 -0.967342 16.442040 -0.273825 83.207884 -1.379474 -11.427097 74.814393 -0.317218 -1.168549 123.935430 -3.140809 4.655172 -117.489102 4.140573 7.900286 -122.270667 1.508095 2.386620 -129.966029 -0.790474 -0.943070
-0.000000 0.000000 72.315770 0.000000 0.000000 0.000000 -99.531479 -0.313847 -1.868494 20.537459 -64.372561 -18.663734 5.494433 -50.273703 -4.231097 60.304599 0.237243 0.416000 -27.749180 -62.775374 25.071365 -5.548610 -49.063076 4.197222 144.077566 -77.608387 35.283169 -38.402429 80.793866 -38.041373 177.328881 -56.917243 2.238568 -0.981492 16.504948 -0.278865 83.135824 -1.389960 -11.392837 74.461216 -0.310732 -1.117379 123.693718 -3.046224 4.556920 -117.448569 4.160704 7.951698 -122.170037 1.493645 2.372994 -129.918457 -0.690603 -0.825334
